<svg version="1.1" id="Layer_1" xmlns="http://www.w3.org/2000/svg" xmlns:xlink="http://www.w3.org/1999/xlink" x="0px" y="0px"
	 width="100%" viewBox="0 0 256 416" enable-background="new 0 0 256 416" xml:space="preserve">
<path fill="#000000" opacity="1.000000" stroke="none" 
	d="
M117.444153,417.000000 
	C118.403572,413.479279 119.807167,409.958588 121.303925,406.204193 
	C117.093849,405.715881 114.328766,406.704773 113.553375,411.096222 
	C113.286591,412.607117 111.965469,413.562164 110.671455,414.405273 
	C109.018440,415.482300 107.552650,415.502472 106.310234,413.844757 
	C105.098007,412.227234 105.904999,411.057159 107.266022,410.077942 
	C108.355804,409.293884 109.453316,408.532593 109.692047,407.065613 
	C105.366425,406.272400 104.397514,406.662079 103.412064,410.566772 
	C102.948990,412.401672 101.846725,413.372925 100.579025,414.457336 
	C99.304626,415.547516 97.969131,416.119324 96.567154,414.960388 
	C94.972809,413.642334 95.220634,411.893646 96.344383,410.498993 
	C98.004478,408.438751 99.740463,406.462311 100.859337,404.047333 
	C93.264305,399.009033 90.455200,399.350891 84.104080,406.016357 
	C82.410980,407.793243 80.393272,407.789093 78.782974,406.302185 
	C77.037811,404.690704 77.164284,402.550812 79.271820,401.267700 
	C81.022758,400.201691 82.341362,398.784058 83.890930,397.243652 
	C80.502022,395.305939 77.532349,394.643768 74.029900,397.353699 
	C71.620171,399.218231 68.706398,398.947388 66.830330,395.574463 
	C69.176125,392.674469 73.590744,393.464294 75.646240,390.377289 
	C70.459480,381.223083 70.508621,381.372620 60.612732,384.624512 
	C57.353428,385.695557 53.778919,385.871765 50.326462,386.261566 
	C48.769306,386.437378 47.186211,385.877045 47.005539,384.003967 
	C46.807957,381.955536 48.638088,381.328094 50.006596,381.440735 
	C54.691975,381.826385 58.595371,379.092377 63.026352,378.529327 
	C66.004257,378.150940 67.018341,376.498230 65.523567,373.615967 
	C63.922081,370.527863 62.438457,367.378693 60.798161,364.042114 
	C54.987057,363.063477 49.983807,369.514130 43.840481,366.345093 
	C42.850750,365.834503 42.763550,364.739410 43.209637,363.395020 
	C46.848011,362.434296 50.696377,361.560364 54.446533,360.375580 
	C56.777866,359.639069 59.704563,358.799896 57.874424,355.259247 
	C56.555908,352.708374 58.250458,347.473450 51.967628,349.099823 
	C48.817738,349.915192 45.428398,350.118927 42.217266,350.971954 
	C39.884537,351.591614 38.033401,350.944092 37.667618,348.514404 
	C37.271999,345.886475 39.433987,345.724670 41.336620,345.687744 
	C45.690975,345.603088 49.826897,344.523438 54.186115,343.204529 
	C53.641651,341.076965 53.059429,339.195770 52.691967,337.273529 
	C52.141605,334.394531 50.726757,333.330963 47.747070,334.148315 
	C45.530994,334.756165 43.191986,335.091614 40.894939,335.169067 
	C39.262901,335.224060 38.030651,334.039398 37.932285,332.346924 
	C37.822884,330.464478 39.157917,329.785370 40.859600,329.709686 
	C41.525368,329.680054 42.202888,329.740356 42.856342,329.639008 
	C45.363148,329.250305 48.565800,329.778564 48.175625,325.547485 
	C47.731785,320.734406 45.500736,318.191864 41.617535,318.452393 
	C40.150486,318.550842 38.712128,319.085388 37.262150,319.427307 
	C35.797649,319.772644 34.528416,319.498596 33.996117,317.969177 
	C33.431618,316.347260 33.886860,315.059540 35.620461,314.347382 
	C37.340385,313.640808 39.115986,313.077728 40.949581,313.416138 
	C44.929470,314.150604 45.421410,311.834595 44.444454,309.070557 
	C43.610985,306.712494 43.089314,304.332184 42.438782,301.954651 
	C41.013763,296.746552 37.147076,300.209564 35.315498,301.158051 
	C31.505381,303.131042 30.256777,301.340607 28.787901,298.494812 
	C31.682800,294.610321 36.528366,295.784363 40.334763,293.768127 
	C39.811214,290.362579 39.362888,286.963379 38.745636,283.595184 
	C38.309086,281.213043 36.514057,280.921783 34.524044,281.350800 
	C33.234230,281.628906 31.987820,282.104736 30.716511,282.473145 
	C28.677931,283.063873 27.479254,282.084503 26.956413,280.240875 
	C26.367863,278.165497 27.487759,277.027802 29.418737,276.730682 
	C31.864723,276.354401 34.306297,275.730591 37.716221,276.453491 
	C35.823990,271.591675 35.316875,267.215790 36.618229,262.420197 
	C37.595036,258.820648 33.896568,258.979218 31.431200,259.357910 
	C28.685081,259.779755 24.870533,261.420868 24.474005,257.517792 
	C24.120132,254.034561 28.241026,254.938416 30.736103,254.585648 
	C32.358109,254.356323 33.943291,253.866547 35.600338,253.480576 
	C36.654537,248.901077 34.392738,244.813965 34.467651,240.523422 
	C34.496235,238.886200 33.122093,238.373825 31.561745,238.803574 
	C30.117710,239.201309 28.704199,239.824081 27.236471,239.992569 
	C25.416224,240.201553 23.870491,239.442871 23.583391,237.433609 
	C23.331425,235.670288 24.473209,234.491745 26.046547,234.170105 
	C28.284481,233.712601 30.595432,233.612259 32.853962,233.361694 
	C32.455891,223.361511 30.991590,222.181381 21.417421,223.610397 
	C19.471708,223.900818 17.026917,224.175415 16.509024,221.584198 
	C16.008759,219.081207 18.163338,218.783737 20.077805,218.540741 
	C21.390932,218.374084 22.668898,217.903488 23.982794,217.774277 
	C31.226793,217.061920 31.228926,217.083603 30.165215,209.042984 
	C26.544765,209.035446 23.634159,210.843933 20.806477,212.771179 
	C18.932432,214.048477 16.686804,215.507156 15.217700,213.118530 
	C13.752522,210.736313 15.939237,209.455414 18.043495,208.329254 
	C29.717752,202.081375 29.693516,202.034439 27.482201,188.690491 
	C27.459373,188.552750 27.268234,188.442886 27.156267,188.318665 
	C24.531830,186.730225 18.839788,190.324081 19.033035,184.652390 
	C19.207022,179.546005 24.504278,183.011444 27.246063,181.522339 
	C27.127249,179.422287 26.943239,177.303757 26.899488,175.182327 
	C26.772232,169.011658 26.179022,168.486542 20.279657,169.651352 
	C19.305555,169.843689 18.359358,170.176712 17.399466,170.441818 
	C15.238177,171.038727 13.625567,170.302109 13.285406,168.095261 
	C12.961182,165.991837 14.720243,165.215607 16.397112,164.879395 
	C18.502220,164.457352 20.654827,164.195541 22.799194,164.063126 
	C26.430248,163.838913 27.550968,161.510010 27.747572,158.399384 
	C27.873512,156.406769 27.748730,154.398148 27.878616,152.405991 
	C28.117472,148.742416 26.286509,147.422272 22.819057,147.199249 
	C20.061361,147.021896 15.270286,147.722519 15.757174,143.989319 
	C16.309244,139.756332 20.912216,142.312271 23.786694,142.250092 
	C24.901867,142.225983 26.028671,142.739487 27.336353,143.052689 
	C29.654425,139.644638 28.420202,135.900406 28.625607,132.378555 
	C28.706207,130.996582 27.516155,130.406174 26.268721,130.254807 
	C22.433699,129.789383 19.174320,127.427673 15.268628,127.072830 
	C12.848786,126.852982 10.851640,125.587631 10.208645,122.931534 
	C9.920146,121.739784 10.600559,121.149223 11.499182,120.540794 
	C13.833960,118.959976 15.706090,120.277527 17.389799,121.584801 
	C19.146048,122.948425 21.136221,124.390610 23.126884,124.289917 
	C25.558500,124.166924 29.184242,127.710251 30.335577,123.398064 
	C31.295485,119.802849 32.141087,115.229996 26.828215,113.308151 
	C25.112469,112.687508 23.434549,111.939102 21.797840,111.130676 
	C20.548660,110.513664 19.500792,109.556763 19.939098,107.982109 
	C20.433186,106.207069 22.079321,106.382744 23.256739,106.723335 
	C26.231157,107.583755 29.118917,108.743744 32.060677,109.790581 
	C33.836548,106.402252 33.371567,102.748894 34.463661,99.437622 
	C35.059326,97.631546 33.970722,96.255432 32.473751,95.242165 
	C29.996996,93.565704 27.525396,91.881607 25.055452,90.195114 
	C23.557158,89.172050 22.417780,87.877502 23.613605,86.065094 
	C24.857096,84.180458 26.215818,84.999916 27.844204,85.972061 
	C30.327806,87.454750 31.954807,90.505722 35.583420,90.337517 
	C37.423500,87.981346 38.247929,85.118073 39.192074,82.304573 
	C39.590008,81.118752 39.850319,79.754684 38.638577,79.159058 
	C34.581039,77.164566 33.631275,72.619591 30.639273,69.770142 
	C29.208735,68.407761 28.704279,66.695320 29.593052,64.757942 
	C30.247068,63.332287 31.427454,62.892864 32.864651,63.024811 
	C34.987625,63.219715 36.135216,64.635750 36.641479,66.510239 
	C37.546783,69.862221 38.630924,73.077965 41.309223,75.738861 
	C42.824009,73.601540 43.751007,71.476433 45.008904,69.553574 
	C47.085087,66.379868 48.021465,62.735977 44.192314,59.782734 
	C42.293610,58.318352 42.524818,55.877483 41.620895,53.949707 
	C40.630264,51.837013 41.326462,49.749233 43.747776,49.262398 
	C46.219051,48.765514 48.128933,50.239426 48.071476,52.763245 
	C48.025169,54.796970 47.884380,56.385727 50.421745,57.126110 
	C53.269787,55.040222 54.253418,52.917091 52.072720,49.303322 
	C49.836483,45.597523 49.543465,41.081196 49.200199,36.800289 
	C49.038883,34.788479 50.045425,32.593029 52.683392,32.902481 
	C55.393059,33.220345 56.442181,35.215420 55.367710,37.639648 
	C53.575211,41.683891 55.686344,44.981640 56.718571,49.267727 
	C60.702259,45.694244 65.109383,43.452293 62.824486,37.204483 
	C61.726028,34.200867 63.149376,30.947123 64.220459,27.973652 
	C64.858604,26.202095 66.064362,24.793324 68.243851,24.774191 
	C69.689796,24.761499 71.073296,25.287201 71.615410,26.520979 
	C72.411652,28.333109 70.998222,29.552773 69.835899,30.773460 
	C67.991928,32.710014 67.874664,35.165543 67.675095,37.684647 
	C74.093323,37.021568 75.579018,35.184681 75.050743,29.336254 
	C74.826965,26.858900 74.916580,24.341482 75.023949,21.849176 
	C75.138252,19.196066 76.877701,17.630617 79.137596,16.679893 
	C80.953857,15.915804 82.381126,16.850891 83.480247,18.251328 
	C84.481606,19.527184 84.078720,20.568867 83.007431,21.741228 
	C79.809311,25.241085 79.837997,25.412807 80.955330,31.878220 
	C84.219734,29.910738 87.902618,29.647243 88.655708,24.254751 
	C89.372162,19.124599 91.234879,13.982822 92.526604,8.828113 
	C93.031075,6.814990 93.615593,4.895325 96.249474,4.892169 
	C97.674118,4.890462 98.711502,5.241012 99.389969,6.757739 
	C100.365112,8.937675 99.854179,10.378688 98.202675,12.032069 
	C95.352859,14.885127 95.350990,18.952864 94.452385,22.592730 
	C94.107773,23.988592 94.771248,25.425528 96.521996,25.301394 
	C98.613029,25.153131 100.604469,24.437149 100.538445,21.800194 
	C100.457405,18.563229 101.295311,15.573636 102.386795,12.575494 
	C103.302711,10.059613 105.044983,8.254573 107.246117,7.113744 
	C108.813675,6.301297 111.006859,6.041331 111.962685,8.267200 
	C112.716759,10.023244 112.011429,11.503195 110.161606,12.312275 
	C106.075813,14.099330 105.417091,17.870689 104.529579,21.561462 
	C109.989319,23.502357 112.551041,22.207134 114.391983,16.688459 
	C114.968094,14.961445 115.230476,13.128088 115.830406,11.411177 
	C116.444054,9.655006 117.810585,8.812374 119.719162,8.925664 
	C121.127777,9.009276 122.486679,9.385017 122.981583,10.788697 
	C123.574440,12.470188 123.175278,13.976046 121.698631,15.251844 
	C119.384506,17.251225 117.885941,19.713547 118.177963,24.240429 
	C121.124268,20.112255 123.778000,17.084917 127.470650,15.202304 
	C129.624985,14.103964 131.767700,13.235850 134.145645,13.918630 
	C135.760025,14.382173 137.486481,15.240829 137.029434,17.347595 
	C136.601624,19.319576 135.365967,20.655506 133.025696,19.880836 
	C129.277740,18.640196 127.738335,21.258278 125.925751,23.569326 
	C128.890717,26.591702 131.662094,26.714041 134.782059,24.211763 
	C136.982208,22.447186 139.764206,22.603188 142.459351,22.671436 
	C144.455460,22.721985 145.747894,23.538467 145.650558,25.601160 
	C145.550781,27.715902 144.205551,28.427994 142.183914,27.974733 
	C141.384216,27.795437 140.467606,27.363832 139.782806,27.589352 
	C137.641068,28.294662 134.656647,28.744232 134.879501,31.635147 
	C135.095749,34.440311 137.896927,33.475643 139.766907,33.634880 
	C140.262848,33.677105 140.766754,33.648117 141.265930,33.626537 
	C148.255417,33.324352 149.785690,35.206917 148.048294,42.016346 
	C149.206039,43.024174 151.079407,42.082287 152.102417,43.467911 
	C152.008804,48.704220 151.335312,49.230656 146.579651,47.733875 
	C144.944733,47.219307 143.187683,46.774441 141.874786,48.101536 
	C140.802429,49.185486 141.490250,50.607601 142.077805,51.829132 
	C143.087570,53.928440 144.655136,53.342117 146.329681,52.812580 
	C147.571365,52.419922 148.926834,51.874256 150.217270,52.569942 
	C151.906998,53.480896 154.402481,53.957718 154.073776,56.517433 
	C153.732391,59.175865 151.301941,58.232300 149.626831,58.409710 
	C148.808868,58.496342 147.965607,58.307598 147.133652,58.305649 
	C145.181702,58.301075 142.465271,57.807613 142.699814,60.735050 
	C142.901489,63.252541 145.936676,62.957256 147.777039,63.611198 
	C148.648300,63.920792 149.919220,62.907722 151.046005,62.735245 
	C153.836288,62.308136 155.005142,64.108887 155.405380,66.430054 
	C155.841888,68.961479 154.152908,69.715408 152.000305,70.362724 
	C142.720093,73.153374 133.404953,75.875252 124.290016,79.144814 
	C120.619576,80.461411 116.328514,79.917313 113.176193,82.958855 
	C112.327385,83.777832 110.939812,82.898369 110.195023,81.874817 
	C109.281219,80.619011 109.670021,79.423706 110.341934,78.151169 
	C111.135033,76.649155 114.063599,76.593513 113.176552,74.008461 
	C111.939651,70.403885 112.840454,66.198380 110.488205,62.983059 
	C107.796654,59.303944 101.297127,57.991474 95.746300,60.344849 
	C86.690834,64.184074 80.000793,70.849960 75.751961,79.658150 
	C70.130600,91.311691 64.562355,103.014412 59.639248,114.971039 
	C57.267807,120.730499 55.090397,126.895332 57.214180,133.531448 
	C58.071854,136.211411 55.263271,138.408829 55.319145,141.153885 
	C55.524517,151.243286 54.940247,161.417282 56.582401,171.380753 
	C58.099552,180.585800 58.248909,189.865036 59.272179,199.086349 
	C61.063297,215.227127 62.572289,231.399338 64.175377,247.560791 
	C65.302849,258.927277 65.416954,270.492035 68.173645,281.568298 
	C71.525154,295.034546 73.707130,308.730652 77.788300,322.103973 
	C81.232201,333.389099 83.464958,345.242371 86.640251,356.667053 
	C89.647728,367.487854 95.015686,377.648102 107.168633,381.682587 
	C110.655838,382.840210 114.141235,383.462280 117.311218,381.704529 
	C120.387733,379.998535 123.702293,382.198975 126.500992,380.588379 
	C133.536957,376.539398 139.067673,371.310669 139.702179,362.516693 
	C139.927322,359.396210 140.593018,356.287170 140.579559,353.175018 
	C140.563309,349.420685 141.889725,347.501526 145.835693,347.754486 
	C148.146881,347.902679 149.934311,346.606354 151.701019,345.308655 
	C157.050201,341.379333 159.371521,342.051575 161.549072,348.134766 
	C161.814804,348.877136 161.999420,349.648529 162.151718,350.168030 
	C164.067322,351.015839 165.390793,349.873505 166.840042,349.759796 
	C169.366241,349.561554 172.582321,349.358612 172.739304,352.619324 
	C172.877411,355.488434 169.519089,356.148438 167.454453,355.740570 
	C164.185333,355.094666 162.864059,356.710358 161.637482,359.021576 
	C161.518814,359.245148 161.732239,359.644958 161.843842,360.243774 
	C164.855499,360.748199 167.477386,358.619415 170.430313,358.688324 
	C172.281631,358.731537 174.443008,358.538788 174.848846,360.897614 
	C175.268875,363.339020 172.936813,363.116180 171.468781,363.613342 
	C168.804062,364.515778 166.145981,365.441986 163.457199,366.267212 
	C162.227997,366.644440 161.231140,367.159149 161.336288,368.595978 
	C161.465164,370.357178 162.827316,370.625092 164.225067,370.662292 
	C166.553619,370.724274 168.884628,370.767242 171.213272,370.731415 
	C173.475861,370.696564 175.519318,371.218903 175.092224,373.933868 
	C174.725861,376.262787 172.964066,377.925079 170.435593,377.190094 
	C168.643845,376.669281 166.787872,376.731812 165.099304,376.223083 
	C160.702133,374.898407 159.089722,377.252991 157.942444,380.809631 
	C162.182449,384.116241 169.656342,376.377411 172.300354,385.255615 
	C169.728134,386.735626 167.414795,387.392700 164.606812,386.700714 
	C162.711319,386.233643 160.627686,386.328888 158.646759,386.457794 
	C155.825195,386.641510 152.500305,386.791870 151.265823,389.657318 
	C150.012100,392.567413 153.262283,393.759949 154.877701,395.509247 
	C156.467148,397.230377 158.405823,399.430115 156.188080,401.427185 
	C154.011292,403.387329 151.520721,402.443085 150.011063,399.771027 
	C149.528900,398.917603 149.065262,398.050262 148.527237,397.232605 
	C147.421417,395.552032 145.985962,393.553070 143.899734,394.521027 
	C141.854721,395.469910 139.092728,396.397339 139.318970,399.726715 
	C139.475891,402.035828 139.135315,404.362854 140.584503,406.469940 
	C141.584641,407.924103 141.914047,409.620880 140.406738,411.004547 
	C139.410599,411.918915 138.197693,412.525482 136.755005,411.876709 
	C134.922440,411.052582 134.761093,409.439240 134.650238,407.708588 
	C134.514908,405.595581 135.131287,403.392090 134.053329,401.374908 
	C127.900604,402.317627 123.753738,409.169647 124.990036,416.627991 
	C122.629440,417.000000 120.258888,417.000000 117.444153,417.000000 
z"/>
<path fill="#000000" opacity="1.000000" stroke="none" 
	d="
M257.000000,164.550018 
	C253.307083,159.689880 248.613739,156.723679 241.825455,158.207748 
	C240.164139,158.570953 238.397919,158.251419 237.909958,156.117981 
	C237.367615,153.746841 238.827438,152.903320 240.810379,152.356308 
	C246.600952,150.758881 251.470612,153.148819 256.649292,155.898468 
	C257.000000,158.700012 257.000000,161.400024 257.000000,164.550018 
z"/>
<path fill="#000000" opacity="1.000000" stroke="none" 
	d="
M257.000000,178.550018 
	C255.048279,179.628448 254.306412,181.905045 252.175400,182.396362 
	C250.078629,182.879807 248.050644,183.185654 247.045029,180.859116 
	C246.122192,178.724106 246.896240,176.776520 249.102234,175.958572 
	C252.212234,174.805481 254.363632,172.627914 256.657074,170.062683 
	C257.000000,172.700012 257.000000,175.400024 257.000000,178.550018 
z"/>
<path fill="#000000" opacity="1.000000" stroke="none" 
	d="
M121.040405,118.223312 
	C123.101860,129.016373 122.826569,139.557800 123.561089,150.028442 
	C124.120621,158.004639 124.175926,165.958481 124.380539,173.925476 
	C124.457947,176.939911 126.631668,176.833023 128.662369,176.631668 
	C142.200378,175.289505 155.743195,173.984711 169.264114,172.484528 
	C182.449524,171.021545 195.591736,169.142761 208.793991,167.874069 
	C212.793915,167.489700 213.806961,166.044052 213.752686,162.316193 
	C213.626205,153.625656 211.687622,145.188263 210.385513,136.682556 
	C209.548523,131.215103 210.360504,125.696663 209.104919,120.285980 
	C208.701538,118.547737 208.914307,116.815109 207.544327,115.243134 
	C205.909149,113.366852 207.380569,111.378731 208.417572,109.812370 
	C209.463882,108.231934 211.436539,108.408264 213.011826,108.954430 
	C215.196198,109.711777 214.332443,111.729965 214.314255,113.282845 
	C214.167892,125.791870 215.726624,138.160004 217.803055,150.438049 
	C218.655701,155.479828 217.116455,160.830429 220.064285,166.131332 
	C228.008514,163.934769 236.735580,165.563049 244.442673,161.311417 
	C246.358536,160.254532 247.998291,160.912018 249.438461,162.255676 
	C251.081894,163.788956 250.720459,165.640488 249.810669,167.301773 
	C248.686615,169.354309 246.630432,170.919006 244.452377,170.070099 
	C237.909164,167.519882 231.612091,170.629013 225.200333,170.405594 
	C221.446487,170.274811 219.912704,172.219711 220.022797,176.020676 
	C220.268494,184.503510 222.263443,192.803406 222.156418,201.344559 
	C221.974792,215.837585 222.130112,230.339081 222.397125,244.832352 
	C222.687653,260.601868 223.462479,276.363678 223.657013,292.133392 
	C223.806854,304.280243 223.707352,316.450775 223.081192,328.577881 
	C222.772781,334.551025 225.459183,336.680267 230.618317,337.252960 
	C232.432922,337.454376 234.259369,337.548370 236.080078,337.695618 
	C238.507233,337.891907 239.873230,339.249237 239.467484,341.630219 
	C239.041855,344.127899 237.114365,344.647095 234.872345,344.062927 
	C231.397415,343.157562 227.938431,342.190918 224.420807,341.236176 
	C223.414200,348.667267 224.445389,350.188049 231.262604,352.601959 
	C233.658646,353.450317 237.839981,353.215881 236.116592,357.614929 
	C234.390854,362.019928 231.182465,360.310669 228.278931,358.671173 
	C227.448074,358.201996 226.587677,357.785095 225.106400,357.013977 
	C225.726257,362.959808 225.126373,368.502350 227.838791,374.150513 
	C230.899796,371.602325 232.686661,369.342010 232.636246,366.093048 
	C232.592316,363.261719 234.182236,361.787994 236.628922,361.078949 
	C238.985397,360.395996 239.873444,362.216400 240.717102,363.854126 
	C241.908340,366.166595 242.073471,368.318878 239.453262,369.874054 
	C237.220825,371.199066 235.747879,373.225220 234.627899,375.483154 
	C231.604752,381.578094 226.180801,381.938629 220.514343,381.247986 
	C214.887070,380.562103 209.606003,378.845886 207.440521,372.829010 
	C206.344574,369.783905 205.183838,366.293915 210.214310,364.848907 
	C212.621750,368.414215 212.985855,373.845947 219.163498,374.177856 
	C220.781586,367.638580 220.341171,361.033752 218.470413,354.787140 
	C217.228119,350.639038 212.715363,351.220551 209.187851,351.472015 
	C207.514145,351.591339 205.903381,352.407471 204.835724,350.459717 
	C204.030075,348.989899 204.340836,347.443970 205.189423,346.195953 
	C206.281387,344.589996 207.849625,343.683655 209.929031,344.476227 
	C211.015808,344.890472 212.085968,345.414062 213.213409,345.640717 
	C214.961868,345.992249 217.315155,348.097687 218.304276,345.237518 
	C219.029892,343.139282 218.427185,340.608856 215.984680,339.237396 
	C214.335098,338.311188 211.679108,338.106506 212.045166,335.444519 
	C212.446198,332.528290 215.385468,333.408051 217.920319,332.484589 
	C217.920319,320.511505 217.955002,308.381287 217.911102,296.251343 
	C217.861862,282.646271 217.713821,269.041626 217.660843,255.436569 
	C217.617645,244.339310 217.624832,233.241684 217.656860,222.144348 
	C217.703384,206.026810 216.159943,190.014816 214.513687,174.009460 
	C214.467056,173.555984 214.086273,173.136887 213.748459,172.483505 
	C205.665833,172.675995 197.616425,173.969299 189.540543,174.638596 
	C174.142715,175.914734 158.826706,178.168762 143.470901,179.967072 
	C138.685608,180.527481 133.872360,180.851501 129.089493,181.429337 
	C126.163254,181.782837 124.175705,183.050735 124.308472,186.572388 
	C125.005318,205.057922 121.834373,223.389862 122.040070,241.866043 
	C122.127617,249.730164 123.269829,251.822418 130.539337,254.381531 
	C133.034042,255.259766 135.930237,255.950409 134.734238,259.156372 
	C133.375000,262.799866 130.665482,260.435181 128.458008,259.640778 
	C128.204681,259.549622 127.859497,259.713745 126.449936,259.926788 
	C129.211349,261.080139 131.056198,262.076965 133.026291,262.616302 
	C135.498840,263.293213 136.542282,265.092316 137.046371,267.224884 
	C137.449615,268.930878 136.216690,270.163361 134.735703,270.632599 
	C132.534546,271.330078 130.941849,270.063995 129.646378,268.397156 
	C127.803032,266.025391 125.409805,264.799469 121.689087,264.799255 
	C121.705254,269.479980 119.749557,274.136780 123.250908,278.461731 
	C125.706497,281.494904 123.160553,283.182220 120.497032,286.008881 
	C124.942383,283.875427 128.548004,283.025177 128.821640,278.079407 
	C129.004227,274.779480 131.753571,274.055542 134.375107,275.069641 
	C137.000305,276.085175 138.061218,278.349976 136.819534,281.200073 
	C133.674881,288.418243 118.796135,293.943115 111.608772,290.573883 
	C107.536201,288.664764 104.303337,280.827301 105.295044,274.505096 
	C112.224922,274.120056 109.290833,283.210999 114.419334,284.076904 
	C114.959908,278.322205 116.206390,272.553284 116.077354,266.579651 
	C116.012794,263.591064 115.478203,262.143555 112.487663,261.180450 
	C110.164902,260.432404 105.585754,261.043884 106.411812,257.073425 
	C107.159004,253.481918 110.982704,254.920288 113.722084,255.232101 
	C114.180489,255.284286 114.664574,255.110977 115.118736,255.044510 
	C116.243202,252.813354 114.696625,252.438187 113.211914,251.956512 
	C111.611404,251.437271 109.750671,250.884491 110.022812,248.756653 
	C110.305984,246.542542 112.336739,246.761429 113.963959,246.607849 
	C115.795242,246.435013 116.454285,245.339859 116.635406,243.611252 
	C118.681641,224.082596 119.444046,204.490646 119.584618,184.867630 
	C119.587914,184.407455 119.303627,183.945221 119.101379,183.323914 
	C112.460869,184.012024 105.856689,184.644562 99.267456,185.406418 
	C96.865234,185.684158 94.700188,185.672379 94.586441,182.595871 
	C94.487091,179.908783 96.268234,178.733154 98.769547,178.696808 
	C102.885597,178.637024 106.882614,177.742142 111.145210,178.455566 
	C117.931282,179.591324 120.069794,177.620422 119.572960,170.927094 
	C118.797607,160.481567 118.734947,150.001465 118.331108,139.559311 
	C117.954018,129.808456 115.500519,120.657227 113.544243,111.311958 
	C113.162010,109.485992 112.450035,107.583305 114.244743,106.282578 
	C115.924438,105.065186 117.733574,105.816536 119.414429,106.704933 
	C121.564255,107.841225 121.193115,109.525467 120.684837,111.430061 
	C120.122322,113.537819 120.104332,115.712524 121.040405,118.223312 
z"/>
<path fill="#000000" opacity="1.000000" stroke="none" 
	d="
M167.838440,186.600647 
	C178.893219,184.054688 189.514053,181.475861 200.167618,179.040237 
	C202.531326,178.499832 205.408539,177.645844 206.965988,180.328552 
	C208.308762,182.641434 207.546677,185.084717 205.884827,187.255325 
	C201.621384,192.824020 200.865128,199.828720 198.404205,206.133667 
	C194.981522,214.902649 192.809662,224.153000 188.569809,232.612625 
	C186.758224,236.227158 185.592957,239.920334 184.940079,243.919601 
	C184.339020,247.601379 182.471786,250.770248 178.430405,251.814240 
	C175.749161,252.506851 173.487976,251.218872 172.917114,248.865723 
	C170.541382,239.072784 164.699554,231.154541 159.136856,223.181915 
	C154.206711,216.115906 148.484665,209.594238 142.982025,202.939926 
	C140.792526,200.292175 138.655502,197.577072 134.662567,197.136307 
	C132.466415,196.893890 131.689468,194.767578 131.772354,192.511169 
	C131.848740,190.432327 133.181168,189.302811 134.892929,189.220993 
	C145.764160,188.701294 156.387177,185.073135 167.838440,186.600647 
M152.816559,206.725571 
	C160.781921,217.936096 170.462204,227.914566 176.545761,241.828568 
	C187.741150,223.626511 192.746552,204.661942 199.713959,184.842972 
	C180.524384,190.542450 161.862366,191.992081 142.192001,193.265137 
	C146.219681,198.439728 149.256027,202.340683 152.816559,206.725571 
z"/>
<path fill="#000000" opacity="1.000000" stroke="none" 
	d="
M138.573486,153.622894 
	C145.367950,144.870193 148.997452,134.863174 153.485291,125.309364 
	C156.367935,119.172775 162.004852,118.490669 167.398239,122.476425 
	C177.573059,129.995651 184.065018,141.315872 194.763123,148.239090 
	C196.573486,149.410675 198.403946,150.467255 200.262543,151.537003 
	C203.574127,153.443039 206.022293,156.226822 205.550201,160.362976 
	C205.237534,163.102249 199.389801,167.029633 196.201553,166.639252 
	C186.980667,165.510117 178.027527,167.218079 168.989700,168.590042 
	C164.426727,169.282730 159.599808,169.640472 155.086533,168.924637 
	C148.465271,167.874466 142.193985,168.469940 135.940140,170.424286 
	C134.121918,170.992493 132.687561,170.810226 131.508026,169.288879 
	C130.477356,167.959534 130.443924,166.473984 131.194870,165.074738 
	C132.570953,162.510666 134.817734,164.851685 136.771469,164.245285 
	C131.963821,159.882782 136.004883,157.059097 138.573486,153.622894 
M147.846680,149.260040 
	C144.429153,153.301666 146.135239,158.487564 144.510208,163.419876 
	C162.039291,164.451111 178.966522,162.674713 197.139709,158.874374 
	C190.913879,153.045181 186.256210,148.274994 181.164612,144.024597 
	C175.306396,139.134216 171.700745,132.019882 164.702621,128.210449 
	C161.313828,126.365768 159.399429,126.240623 157.626633,129.938446 
	C154.612808,136.224869 151.359406,142.396454 147.846680,149.260040 
z"/>
<path fill="#000000" opacity="1.000000" stroke="none" 
	d="
M95.485214,193.595459 
	C98.064110,193.821198 100.165291,193.699539 102.121605,192.488464 
	C104.038696,191.301682 105.661629,192.347549 107.049080,193.566132 
	C108.170921,194.551468 108.334038,195.897064 107.336761,197.126328 
	C106.126488,198.618149 104.919769,201.572647 103.108696,200.658051 
	C99.338860,198.754333 95.221664,199.919617 91.508728,198.363464 
	C88.720825,197.195007 86.722549,195.562073 85.790428,192.618515 
	C82.494896,182.211548 89.005516,170.022369 99.530075,167.063324 
	C101.920822,166.391159 104.330849,166.293427 105.327385,169.186127 
	C106.400368,172.300735 103.803116,173.772232 101.763847,174.000870 
	C94.528526,174.812119 92.422112,180.037430 90.740913,185.770096 
	C89.573944,189.749359 90.572594,192.666275 95.485214,193.595459 
z"/>
<path fill="#000000" opacity="1.000000" stroke="none" 
	d="
M223.565399,102.031448 
	C229.561844,103.926888 232.125656,108.991478 235.509064,113.081062 
	C236.920242,114.786789 235.716965,116.835922 234.108963,117.715271 
	C232.020691,118.857262 229.598557,118.899971 227.688828,117.001060 
	C227.128906,116.444298 226.731232,115.621254 226.505447,114.848320 
	C225.058197,109.893967 221.921753,106.348839 216.709915,106.542465 
	C210.776642,106.762886 204.860107,108.027267 201.951416,114.478500 
	C201.279449,115.968880 200.170059,117.391670 198.209686,117.303001 
	C196.451416,117.223465 195.668533,115.874725 195.105469,114.453300 
	C194.246567,112.285141 196.195755,111.754242 197.303665,110.595284 
	C202.972107,104.665565 209.225708,100.102776 217.991913,100.617500 
	C219.821518,100.724922 221.655197,100.651543 223.565399,102.031448 
z"/>
<path fill="#000000" opacity="1.000000" stroke="none" 
	d="
M105.583817,103.652435 
	C114.621895,94.771851 121.803230,93.261200 131.143219,102.042900 
	C133.201599,103.978233 135.282990,105.901970 137.190155,107.981133 
	C138.706787,109.634514 138.966446,111.728111 137.279007,113.327003 
	C135.593201,114.924339 133.492218,114.677368 131.963608,112.940056 
	C130.324631,111.077316 129.057251,108.890488 127.446442,106.999504 
	C124.542976,103.591026 121.114876,100.870949 116.291466,102.057419 
	C111.757591,103.172676 106.644165,109.607040 106.360382,113.956764 
	C106.244385,115.734840 106.672485,117.716499 104.485458,118.692490 
	C103.301659,119.220764 102.084976,119.283607 101.324951,118.206055 
	C100.134567,116.518349 99.642517,114.632095 100.588898,112.574768 
	C101.970695,109.570854 102.847504,106.300217 105.583817,103.652435 
z"/>
<path fill="#000000" opacity="1.000000" stroke="none" 
	d="
M184.713364,204.306885 
	C187.139420,208.120911 186.875412,211.884521 184.733948,214.968506 
	C182.709412,217.884109 179.271194,219.425339 175.562698,218.953171 
	C172.972366,218.623352 170.898300,217.073288 170.350266,214.257095 
	C169.569946,210.247208 169.898651,206.337509 172.102142,202.799545 
	C172.777359,201.715378 174.199677,201.545425 175.282990,201.948135 
	C178.244293,203.048935 181.692139,201.915649 184.713364,204.306885 
z"/>
<path fill="#000000" opacity="1.000000" stroke="none" 
	d="
M160.821884,155.024628 
	C159.080811,150.931824 157.683136,147.282745 160.344879,143.339813 
	C163.940552,138.013382 166.287430,137.676941 170.724365,142.204437 
	C175.214081,146.785797 173.250900,155.866318 167.276047,157.991776 
	C164.456085,158.994919 162.446198,157.815094 160.821884,155.024628 
z"/>
</svg>