<svg width="22" height="19" viewBox="0 0 22 19" fill="none" xmlns="http://www.w3.org/2000/svg">
<path d="M21.194 2.95938C21.1366 2.82288 21.0401 2.70641 20.9167 2.62466C20.7932 2.54292 20.6483 2.49954 20.5002 2.5H17.6503C17.3082 1.9033 16.8335 1.39333 16.2627 1.00959C15.692 0.625844 15.0405 0.378623 14.3589 0.287072C13.6772 0.195522 12.9837 0.262097 12.3319 0.481644C11.6801 0.701191 11.0876 1.06782 10.6002 1.55313C10.1736 1.96916 9.83434 2.46628 9.6025 3.01527C9.37067 3.56427 9.25091 4.15406 9.25025 4.75V5.32188C5.43462 4.32813 2.31275 1.25313 2.28462 1.21563C2.18656 1.11915 2.06385 1.0515 1.92991 1.02008C1.79598 0.988667 1.65599 0.994693 1.52525 1.0375C1.39493 1.07898 1.27822 1.15488 1.18747 1.25718C1.09671 1.35949 1.03526 1.48441 1.00962 1.61875C0.194 6.1375 1.55337 9.16563 2.83775 10.9094C3.48195 11.7911 4.26382 12.5635 5.15337 13.1969C3.719 14.8188 1.5065 15.6625 1.48775 15.6719C1.38195 15.7111 1.28636 15.7737 1.20812 15.855C1.12988 15.9363 1.07099 16.0343 1.03584 16.1415C1.0007 16.2487 0.990208 16.3625 1.00515 16.4744C1.02009 16.5862 1.06007 16.6933 1.12212 16.7875C1.19712 16.9 1.47837 17.2656 2.16275 17.6125C3.01587 18.0344 4.14087 18.25 5.50025 18.25C12.1096 18.25 17.6409 13.1594 18.2034 6.60625L21.0346 3.78438C21.1364 3.67594 21.2053 3.54091 21.2335 3.39491C21.2617 3.24891 21.248 3.09791 21.194 2.95938ZM16.9471 5.74375C16.8165 5.87333 16.7395 6.04741 16.7315 6.23125C16.3471 12.1281 11.4159 16.75 5.50025 16.75C4.5065 16.75 3.81275 16.6188 3.32525 16.4594C4.40337 15.8781 5.90337 14.8656 6.87837 13.4125C6.93497 13.3246 6.97255 13.2257 6.98869 13.1224C7.00484 13.0191 6.99919 12.9135 6.97212 12.8125C6.94483 12.7105 6.89655 12.6152 6.83037 12.5329C6.76418 12.4506 6.68155 12.383 6.58775 12.3344C6.57837 12.325 5.19087 11.6031 4.00025 9.9625C2.65025 8.10625 2.07837 5.84688 2.30338 3.24063C3.78463 4.45938 6.61587 6.44688 9.87837 6.99063C9.98611 7.00793 10.0963 7.00181 10.2015 6.97269C10.3066 6.94357 10.4043 6.89213 10.4877 6.82188C10.5694 6.75046 10.635 6.66259 10.6802 6.56403C10.7254 6.46547 10.7493 6.35845 10.7502 6.25V4.75C10.7516 4.06187 10.9896 3.39514 11.4241 2.86159C11.8587 2.32803 12.4634 1.96008 13.137 1.81943C13.8106 1.67877 14.5121 1.77396 15.1239 2.08904C15.7356 2.40412 16.2205 2.91993 16.4971 3.55C16.5569 3.68402 16.6543 3.79785 16.7774 3.87771C16.9005 3.95758 17.0441 4.00005 17.1909 4H18.6909L16.9471 5.74375Z" fill="black"/>
</svg>
