<svg version="1.1" id="Layer_1" xmlns="http://www.w3.org/2000/svg" xmlns:xlink="http://www.w3.org/1999/xlink" x="0px" y="0px"
	 width="100%" viewBox="0 0 480 496" enable-background="new 0 0 480 496" xml:space="preserve">
<path fill="#000000" opacity="1.000000" stroke="none" 
	d="
M246.613037,391.908691 
	C246.800247,393.801605 247.218918,395.303497 247.092560,396.758087 
	C246.875687,399.254150 245.642471,400.467133 243.060760,398.995026 
	C227.607513,390.183411 212.214859,381.261993 196.645813,372.659882 
	C193.433395,370.884979 189.738235,367.577576 186.135818,369.346985 
	C182.542374,371.112000 184.441223,375.705170 184.413528,379.005219 
	C184.231766,400.664734 184.285431,422.326202 184.237610,443.986938 
	C184.230362,447.267090 183.603790,450.713745 187.378143,452.404907 
	C186.423782,455.261475 184.337418,454.976410 182.337662,455.083771 
	C170.368561,455.726379 158.342484,454.385101 146.407288,456.111633 
	C143.823486,456.485382 142.525360,455.382324 142.729553,452.819275 
	C144.211212,434.219879 143.587051,415.565155 144.200867,396.941498 
	C144.732971,380.797394 144.588165,364.631500 144.817215,348.476318 
	C144.856888,345.676453 143.262360,344.213104 141.112137,343.074188 
	C125.227631,334.660614 109.329369,326.273010 93.442543,317.863800 
	C90.063622,316.075226 86.726967,314.206726 83.345490,312.423126 
	C81.536804,311.469116 80.764023,310.109100 80.782341,308.005524 
	C80.879471,296.850891 80.860931,285.695251 80.896362,274.540039 
	C80.902679,272.549042 81.570793,270.770874 83.653923,270.308258 
	C85.558189,269.885406 85.653923,272.033600 86.614792,272.857300 
	C89.719078,275.518463 93.116989,277.958313 96.716995,279.898529 
	C110.478683,287.315430 124.354958,294.520233 138.212738,301.757751 
	C140.109100,302.748169 142.050659,303.761047 144.311264,303.803192 
	C146.080170,302.012329 145.652985,299.747406 145.682266,297.642975 
	C146.124725,265.836090 146.294373,234.022720 147.090378,202.224976 
	C147.340256,192.243454 147.482132,182.259720 147.736847,172.278717 
	C147.829727,168.639297 146.516586,167.230179 142.808411,167.275253 
	C110.660179,167.666122 78.510727,167.967575 46.360912,168.192398 
	C43.983624,168.209015 42.095150,170.186874 39.061909,169.355240 
	C37.209476,155.219650 42.562340,140.879059 37.892235,126.583809 
	C45.055538,130.141479 51.743950,129.562637 58.226524,129.539795 
	C85.513260,129.443573 112.798912,129.075394 140.085556,128.899353 
	C148.664658,128.843994 148.613174,128.976059 148.693390,120.432030 
	C148.746490,114.777763 148.572815,109.130043 149.413559,103.478523 
	C150.217026,98.077477 148.680832,96.340088 143.393448,96.351463 
	C134.737350,96.370087 126.073570,96.005859 117.423866,96.781387 
	C111.078369,97.350319 110.212730,95.862640 110.491325,89.597816 
	C110.920135,79.955536 110.771896,70.273621 110.478226,60.620388 
	C110.367889,56.993778 111.199272,55.681400 114.900681,56.406319 
	C124.603279,58.306568 134.447937,57.347797 144.227905,57.736584 
	C148.367706,57.901154 149.842377,56.312515 149.928009,52.312107 
	C150.108795,43.866589 151.205658,35.438007 149.906540,26.980642 
	C149.379364,23.548750 152.139954,20.779882 154.819168,22.249548 
	C158.363617,24.193830 161.957016,23.627542 165.534927,23.600569 
	C172.347366,23.549206 179.181046,24.150776 185.975082,22.890570 
	C188.783936,22.369564 191.398300,23.479254 194.775864,25.263880 
	C187.346558,28.047709 189.561111,33.859035 189.303253,38.774357 
	C189.067825,43.262165 189.210724,47.768654 189.119293,52.265530 
	C189.040131,56.159248 190.523987,57.904728 194.757385,57.685696 
	C204.727707,57.169849 214.718018,57.024876 224.701599,56.786785 
	C230.808853,56.641136 231.346359,57.430347 228.951706,62.812386 
	C227.820694,65.354385 228.080612,68.047760 228.075867,70.681961 
	C228.062988,77.843353 228.193436,85.005157 228.289581,92.166504 
	C228.333328,95.423721 227.736191,97.464249 223.652374,95.834877 
	C220.188110,94.452705 216.452164,95.852364 212.796555,95.607910 
	C206.196320,95.166557 199.520798,95.882851 192.875443,96.071022 
	C189.745148,96.159653 187.788605,97.423958 187.740265,100.806396 
	C187.623642,108.964310 187.491806,117.122047 187.398651,125.280228 
	C187.359741,128.687790 189.821106,128.769989 192.251846,128.775543 
	C204.246231,128.802917 216.240753,128.791702 228.235077,128.833191 
	C248.381958,128.902863 268.535461,128.294022 288.672058,129.227386 
	C292.151428,129.388657 293.800476,127.501564 295.301575,124.580826 
	C298.654999,127.466728 301.195099,129.974472 297.880737,134.291016 
	C296.617462,135.936264 297.117950,138.161163 297.122742,140.138458 
	C297.140961,147.634079 297.100800,155.133804 297.350220,162.623077 
	C297.459564,165.906769 296.026886,167.522385 293.034698,167.274994 
	C276.738037,165.927582 260.439240,167.433624 244.138870,167.078232 
	C227.013290,166.704834 209.874268,166.974350 192.741592,166.878555 
	C188.849258,166.856796 186.951157,168.310318 186.928345,172.436844 
	C186.870407,182.914398 186.468918,193.389862 186.389908,203.867554 
	C186.206512,228.193253 186.196808,252.520340 185.989960,276.845764 
	C185.862640,291.818146 185.626755,306.792328 185.170792,321.757507 
	C185.031342,326.334564 187.106598,328.661591 190.907623,330.611084 
	C203.483002,337.060669 215.898239,343.821777 228.441483,350.335144 
	C233.871460,353.154785 239.386261,355.843811 245.012115,358.241150 
	C248.351273,359.664032 249.335434,360.710083 247.972946,364.830475 
	C246.129944,370.403992 245.851349,376.596954 246.739639,382.586121 
	C247.186508,385.599030 247.348114,388.536255 246.613037,391.908691 
z"/>
<path fill="#000000" opacity="1.000000" stroke="none" 
	d="
M388.602356,344.479675 
	C391.608429,345.813446 393.332397,347.687073 394.384521,350.568054 
	C398.594482,362.095978 404.439819,373.314056 403.300049,386.035919 
	C401.061462,411.022614 389.731628,435.949860 362.319458,445.699860 
	C355.399323,448.161255 348.187317,449.259857 341.324554,451.749573 
	C339.201233,452.519928 337.155670,450.900238 335.089325,450.382538 
	C325.745941,448.041443 316.648529,445.177490 308.160156,440.309906 
	C298.775635,434.928375 293.500824,426.142883 287.730865,417.702240 
	C282.185425,409.590088 279.284790,400.911194 279.294189,390.672424 
	C279.300232,384.092926 280.788605,378.374817 282.709381,372.440369 
	C287.856506,356.537689 297.452759,343.612946 309.430939,332.256683 
	C310.844513,330.916534 312.754913,329.839630 314.355072,330.182709 
	C323.738770,332.194702 331.919586,326.924591 340.811340,326.050873 
	C342.725189,325.862793 344.149384,325.420502 346.258911,326.135376 
	C349.109192,327.101288 352.759705,327.332733 355.567566,326.390808 
	C359.197723,325.173065 361.566101,325.995392 364.736359,327.703156 
	C373.285309,332.308502 380.977875,338.008392 388.602356,344.479675 
z"/>
<path fill="#000000" opacity="1.000000" stroke="none" 
	d="
M467.739258,161.751312 
	C469.893982,162.336288 469.747498,164.079391 470.020386,165.447906 
	C472.260284,176.681290 472.644226,187.785217 469.850342,199.144638 
	C467.903687,207.059525 465.118103,214.664337 462.934662,222.474289 
	C461.310242,228.284622 458.188904,233.464203 455.043549,238.560776 
	C453.695465,240.745132 453.474915,242.520065 454.477844,245.022675 
	C460.343201,259.658386 466.199097,274.319153 467.738617,290.240021 
	C467.928162,292.199982 468.993500,294.793762 466.268890,295.169220 
	C463.432678,295.560059 463.949066,292.730804 463.614166,290.814484 
	C461.844757,280.690277 460.575134,270.421051 455.851593,261.071625 
	C453.692078,256.797272 453.559601,251.679184 450.368439,247.726105 
	C446.124969,248.715591 444.262817,252.152390 442.160767,255.270981 
	C435.889679,264.574615 427.638763,271.693054 417.704132,276.714783 
	C412.503815,279.343445 407.829559,282.767548 402.591309,285.384796 
	C383.762451,294.792542 363.339386,296.145752 343.018066,298.205048 
	C340.752747,298.434662 338.732605,297.940369 336.558594,296.445374 
	C332.855103,293.898621 328.111572,293.717529 323.752869,292.738342 
	C305.647003,288.670776 290.293091,279.258575 275.957611,267.960632 
	C264.513977,258.941803 254.835724,248.271072 246.905594,236.021408 
	C245.852066,234.394012 244.445114,232.995392 242.941101,231.175278 
	C227.629974,251.508850 228.095078,275.258942 225.909088,298.847473 
	C222.714417,296.944092 221.104721,294.973999 220.529053,291.475220 
	C218.192200,277.271942 221.304550,263.883972 224.798920,250.220963 
	C227.238708,240.681366 232.250366,232.847580 237.260223,224.908722 
	C239.435944,221.460983 239.058456,218.906845 237.752731,215.712982 
	C233.224457,204.636642 228.388107,193.651077 226.547882,181.694519 
	C226.302338,180.099091 224.654800,177.699600 227.470871,177.125809 
	C230.010788,176.608276 230.755478,179.046692 231.049072,181.038162 
	C232.761063,192.650620 237.285995,203.349579 241.647202,214.103531 
	C241.808365,214.500992 242.323929,214.754700 242.981705,215.356705 
	C249.117676,208.771820 255.214233,202.266190 261.246887,195.701828 
	C261.897278,194.994110 262.208710,194.103348 263.250427,193.639374 
	C278.059265,187.043869 291.362000,177.436172 307.204620,172.785141 
	C319.839172,169.075943 332.558044,166.405273 345.565247,164.518295 
	C352.259094,163.547211 358.300720,164.394531 364.528595,166.440262 
	C372.729614,169.134079 381.437897,170.384827 389.004089,174.841949 
	C391.273376,176.178772 393.130035,174.842804 395.093201,174.624298 
	C400.678467,182.134888 407.767761,187.761520 415.091309,193.258987 
	C427.460785,202.544235 437.166016,214.318512 445.322510,227.404770 
	C447.136444,230.315002 449.026489,233.177795 451.459747,236.961639 
	C454.490448,230.331665 459.037781,225.528198 459.770691,218.780243 
	C459.892242,217.661209 460.388733,216.554565 460.854584,215.505524 
	C467.227386,201.153809 469.071808,186.194702 467.147949,170.661087 
	C466.789215,167.764435 466.077332,164.744781 467.739258,161.751312 
M348.585846,290.467194 
	C348.983459,288.310883 350.132080,286.759735 352.322723,286.259338 
	C357.768127,285.015503 363.489960,286.589111 368.977020,284.045776 
	C370.837830,283.183258 373.655640,283.459351 375.869202,282.237457 
	C377.791809,281.176147 379.380280,281.952209 380.444519,284.013214 
	C381.219086,280.790222 380.779541,277.418945 385.863007,279.096680 
	C387.521912,279.644226 390.135193,278.431274 392.218964,279.716644 
	C393.938843,276.309265 399.234711,278.499207 400.129150,273.630524 
	C401.302917,275.120331 401.945190,275.935516 401.919678,275.903107 
	C405.360016,273.031219 408.127899,269.670197 411.489807,267.730072 
	C414.247375,268.293671 412.502441,270.933899 414.678345,271.386993 
	C415.836151,269.946014 413.905273,267.239624 416.728149,266.194031 
	C417.857391,268.369629 419.194580,270.759705 421.856262,267.763611 
	C421.995697,265.633698 419.061462,266.547577 419.047943,264.677643 
	C420.364380,260.253906 423.013458,261.624359 425.411133,263.424988 
	C427.796539,261.496582 424.556366,259.370575 426.503174,257.346252 
	C427.151642,256.206207 428.830231,258.264648 429.844788,256.950195 
	C430.210876,255.320831 427.473053,254.260406 429.263763,252.109421 
	C432.912201,256.573639 433.801300,248.485352 437.139648,250.733017 
	C437.018768,248.345673 433.177521,248.889252 434.094055,245.756790 
	C436.423340,246.022842 438.765564,246.290359 441.998566,246.659622 
	C440.180603,245.094986 439.121338,244.183319 437.722717,242.979599 
	C442.829102,240.725266 439.742859,235.162643 444.518066,232.121643 
	C440.621460,232.194977 439.948151,235.376724 437.298737,234.897705 
	C436.087250,233.536438 438.719940,230.796616 436.365356,230.154724 
	C433.438354,229.356781 433.750397,226.767822 432.489624,225.072952 
	C429.848572,221.522583 429.023529,215.871078 422.863647,216.219055 
	C421.901581,208.665726 418.960602,207.139236 412.081207,209.708450 
	C406.801514,211.680206 401.334778,213.589844 395.791473,214.328781 
	C382.970459,216.037842 370.066559,217.199966 357.166534,218.201263 
	C352.471863,218.565674 350.020905,220.062500 350.243988,225.074280 
	C350.414062,228.896530 350.316803,232.745621 350.080994,236.566895 
	C349.831116,240.616989 351.162750,242.604630 355.525116,241.805450 
	C358.284241,241.299957 360.765198,241.748672 362.120819,244.736542 
	C360.236816,247.355820 357.425995,246.394180 355.132172,246.754959 
	C352.375366,247.188583 350.365204,248.063568 349.627136,250.928238 
	C349.219116,252.511948 349.112854,254.482544 346.757385,254.294861 
	C344.589935,254.122147 344.244781,252.098770 344.000336,250.604813 
	C343.520050,247.669785 342.572601,246.000031 339.153320,246.644333 
	C337.213928,247.009766 334.610809,246.975372 334.573975,244.229645 
	C334.534119,241.258057 337.199554,241.905930 339.126007,241.898453 
	C341.997162,241.887314 344.619232,241.552856 344.630035,237.773697 
	C344.647949,231.509735 344.634918,225.245712 344.634918,218.647537 
	C338.821625,218.332321 333.181824,218.307266 327.611755,217.671494 
	C311.295135,215.809128 295.429504,211.361877 279.225006,208.716354 
	C273.947845,207.854843 270.389282,210.018860 266.262207,210.942017 
	C263.871185,211.476852 259.864777,213.388168 258.959839,214.897995 
	C257.430206,217.450089 255.276749,218.339813 253.081024,219.880188 
	C253.754395,221.129593 254.401901,222.413437 253.479233,223.671463 
	C250.420395,227.842087 253.389160,231.279877 255.815582,233.502502 
	C258.088959,235.584930 258.352142,237.336975 258.079407,238.556015 
	C264.180695,244.060043 271.276459,247.344818 273.646851,255.325211 
	C274.905121,255.762314 276.379425,253.637222 277.269196,255.407669 
	C278.836700,258.526581 281.517975,259.969543 284.240784,261.921783 
	C288.562927,265.020721 292.840149,267.997955 297.521912,270.572571 
	C300.864807,272.410828 304.347717,274.013489 307.559570,276.343689 
	C311.767792,279.396759 316.075775,284.568329 322.270233,280.967163 
	C324.046936,283.082947 324.378357,285.022797 324.444733,287.067139 
	C327.702179,284.826355 331.162323,285.624634 334.510468,285.728851 
	C334.871918,287.729370 332.357910,288.297943 333.214752,290.107544 
	C335.096710,290.139130 336.099426,288.592407 337.520569,287.847015 
	C338.456329,287.356201 339.436279,287.368073 340.338776,288.044067 
	C342.378052,289.571594 339.148956,290.699310 339.796051,292.054169 
	C344.568054,293.739807 342.033691,287.161377 343.986053,287.318024 
	C347.489319,287.738342 345.057495,291.657135 348.585846,290.467194 
z"/>
</svg>