<svg id="visual" viewBox="0 0 900 450" width="900" height="450" xmlns="http://www.w3.org/2000/svg" xmlns:xlink="http://www.w3.org/1999/xlink" version="1.1"><rect x="0" y="0" width="900" height="450" fill="#95BAB2"></rect><path d="M364 0L363 8.3C362 16.7 360 33.3 321.2 50C282.3 66.7 206.7 83.3 209.3 100C212 116.7 293 133.3 305.2 150C317.3 166.7 260.7 183.3 269.3 200C278 216.7 352 233.3 384.7 250C417.3 266.7 408.7 283.3 398.8 300C389 316.7 378 333.3 345 350C312 366.7 257 383.3 265.8 400C274.7 416.7 347.3 433.3 383.7 441.7L420 450L0 450L0 441.7C0 433.3 0 416.7 0 400C0 383.3 0 366.7 0 350C0 333.3 0 316.7 0 300C0 283.3 0 266.7 0 250C0 233.3 0 216.7 0 200C0 183.3 0 166.7 0 150C0 133.3 0 116.7 0 100C0 83.3 0 66.7 0 50C0 33.3 0 16.7 0 8.3L0 0Z" fill="#B56433" stroke-linecap="round" stroke-linejoin="miter"></path></svg>