<svg id="visual" viewBox="0 0 600 900" width="600" height="900" xmlns="http://www.w3.org/2000/svg" xmlns:xlink="http://www.w3.org/1999/xlink" version="1.1"><rect x="0" y="0" width="600" height="900" fill="#95BAB2"></rect><path d="M132 0L124.8 10C117.7 20 103.3 40 109 60C114.7 80 140.3 100 149.5 120C158.7 140 151.3 160 138.7 180C126 200 108 220 100.5 240C93 260 96 280 106.7 300C117.3 320 135.7 340 133.7 360C131.7 380 109.3 400 96.8 420C84.3 440 81.7 460 87.3 480C93 500 107 520 120.3 540C133.7 560 146.3 580 150 600C153.7 620 148.3 640 138.8 660C129.3 680 115.7 700 116.3 720C117 740 132 760 138.8 780C145.7 800 144.3 820 137.7 840C131 860 119 880 113 890L107 900L0 900L0 890C0 880 0 860 0 840C0 820 0 800 0 780C0 760 0 740 0 720C0 700 0 680 0 660C0 640 0 620 0 600C0 580 0 560 0 540C0 520 0 500 0 480C0 460 0 440 0 420C0 400 0 380 0 360C0 340 0 320 0 300C0 280 0 260 0 240C0 220 0 200 0 180C0 160 0 140 0 120C0 100 0 80 0 60C0 40 0 20 0 10L0 0Z" fill="#B56433" stroke-linecap="round" stroke-linejoin="miter"></path></svg>